mtllib Tent.mtl
o Default
v -9 -5 3.3306690738754696e-15
v -9 0 -2.5
v 0 0 -2.5
v 0 -5 3.3306690738754696e-15
v -9 -5 -5
v -9 0 -2.5
v -9 0 -2.5
v -9 -5 3.3306690738754696e-15
v 0 -5 -5
v -9 0 -2.5
v 0 0 -2.5
v -9 -5 -5
v 0 -5 3.3306690738754696e-15
v 0 0 -2.5
v 0 0 -2.5
v 1.7763568394002505e-15 -5 -5
vt 0 0
vt 0.6000000238418579 1
vt 0 1
vt 0 0
vt 0.6000000238418579 0
vt 0.6000000238418579 1
vt 0.6666666865348816 0
vt 0.8333333134651184 1
vt 0.7666667103767395 0.6000000238418579
vt 0.6666666865348816 0
vt 1 0
vt 0.8333333134651184 1
vt 0 0
vt 0.6000000238418579 1
vt 0 1
vt 0 0
vt 0.6000000238418579 0
vt 0.6000000238418579 1
vt 0.6666666865348816 0
vt 0.8333333134651184 1
vt 0.7666667103767395 0.5999999642372131
vt 0.6666666865348816 0
vt 1 0
vt 0.8333333134651184 1
vn 0 0.4472135954999584 0.8944271909999156
vn 0 0.4472135954999584 0.8944271909999156
vn 0 0.4472135954999584 0.8944271909999156
vn 0 0.4472135954999584 0.8944271909999156
vn 0 0.4472135954999584 0.8944271909999156
vn 0 0.4472135954999584 0.8944271909999156
vn 0 0 0
vn 0 0 0
vn 0 0 0
vn -1 0 0
vn -1 0 0
vn -1 0 0
vn 0 0.4472135954999579 -0.8944271909999159
vn 0 0.4472135954999579 -0.8944271909999159
vn 0 0.4472135954999579 -0.8944271909999159
vn 0 0.4472135954999579 -0.8944271909999159
vn 0 0.4472135954999579 -0.8944271909999159
vn 0 0.4472135954999579 -0.8944271909999159
vn 0 0 0
vn 0 0 0
vn 0 0 0
vn 1 1.7763568394002518e-16 3.5527136788004987e-16
vn 1 1.7763568394002518e-16 3.5527136788004987e-16
vn 1 1.7763568394002518e-16 3.5527136788004987e-16
g Tent
usemtl 1
f 1/1/1 3/2/2 2/3/3
f 1/4/4 4/5/5 3/6/6
f 5/7/7 6/8/8 7/9/9
f 5/10/10 8/11/11 6/12/12
f 9/13/13 10/14/14 11/15/15
f 9/16/16 12/17/17 10/18/18
f 13/19/19 14/20/20 15/21/21
f 13/22/22 16/23/23 14/24/24
